#!OML:ASF X:\für Bonn\!DataBase\2005_08_10_Bjorn_Final\c3d\bjorn.ASF
:FULLY-SPECIFIED
:DEGREES
620
root 0.479954 1.61768 20.49 -278.479 -2.94714 -540.874
lowerback 8.58713 2.60602 -1.30938
upperback 5.50582 2.78959 -3.7716
thorax 1.0224 1.1448 -3.38029
lowerneck -12.1391 -3.76641 -4.12293
upperneck 6.16703 -4.66365 3.51507
head 3.98875 -2.18564 1.41743
rclavicle -8.74653e-015 1.59028e-015
rhumerus -26.8277 10.3356 -50.5672
rradius 98.4683
rwrist -10.2825
rhand -14.3754 11.5174
rfingers 7.12502
rthumb 11.7671 -18.132
lclavicle -8.74653e-015 1.59028e-015
lhumerus -7.11446 -46.0837 39.4196
lradius 72.9412
lwrist -6.58676
lhand -48.6128 -371.874
lfingers 7.12502
lthumb -21.2571 16.9798
rfemur 10.3874 -6.10315 10.306
rtibia 3.05133
rfoot 19.1223 -1.5532
rtoes -12.3939
lfemur -38.5179 22.3373 6.9816
ltibia 111.608
lfoot 32.2735 -12.54
ltoes 3.77443
621
root 0.491718 1.61685 20.4874 -278.375 -2.97937 -540.997
lowerback 8.48418 2.60728 -1.35174
upperback 5.43429 2.80429 -3.68765
thorax 0.99823 1.15649 -3.26688
lowerneck -12.3248 -3.75767 -4.12742
upperneck 6.37945 -4.66372 3.69494
head 4.08873 -2.17163 1.46894
rclavicle 4.05521e-014 -7.35503e-015
rhumerus -27.2487 10.5616 -50.7386
rradius 98.488
rwrist -10.1867
rhand -14.5859 11.6309
rfingers 7.12502
rthumb 11.5641 -18.03
lclavicle 4.05521e-014 -7.35503e-015
lhumerus -7.85398 -45.8629 39.9273
lradius 73.0496
lwrist -6.55212
lhand -49.0451 -372.158
lfingers 7.12502
lthumb -21.6723 16.649
rfemur 10.6869 -6.01687 10.3668
rtibia 2.35378
rfoot 19.0514 -1.784
rtoes -12.7459
lfemur -38.5918 22.2664 6.9115
ltibia 111.582
lfoot 32.3002 -12.499
ltoes 3.49016
622
root 0.501569 1.61648 20.485 -278.275 -3.0505 -541.135
lowerback 8.38245 2.62439 -1.38483
upperback 5.36721 2.83642 -3.64757
thorax 0.981816 1.17579 -3.20568
lowerneck -12.549 -3.74176 -4.076
upperneck 6.65413 -4.66479 3.88451
head 4.21323 -2.15444 1.51366
rclavicle -1.51076e-014 1.31198e-014
rhumerus -27.6286 10.7601 -50.9816
rradius 98.3992
rwrist -10.1298
rhand -14.7191 11.7424
rfingers 7.12502
rthumb 11.4357 -17.9257
lclavicle -1.51076e-014 1.31198e-014
lhumerus -8.53789 -45.6079 40.4059
lradius 73.1264
lwrist -6.61502
lhand -49.3225 -372.336
lfingers 7.12502
lthumb -21.9387 16.4397
rfemur 11.2596 -5.91537 10.4025
rtibia 1.15416
rfoot 19.2035 -2.19529
rtoes -12.8135
lfemur -38.6453 22.1833 6.78585
ltibia 111.553
lfoot 32.3348 -12.4313
ltoes 3.34408
623
root 0.511072 1.61552 20.483 -278.163 -3.08733 -541.26
lowerback 8.28652 2.63223 -1.39426
upperback 5.27862 2.8607 -3.58674
thorax 0.939529 1.19329 -3.13618
lowerneck -12.7143 -3.73735 -4.09603
upperneck 6.9057 -4.67661 4.12081
head 4.32462 -2.1417 1.58473
rclavicle 1.66979e-014 -3.83654e-014
rhumerus -27.9649 10.9761 -51.2258
rradius 98.2
rwrist -10.0567
rhand -14.7966 11.861
rfingers 7.12502
rthumb 11.3609 -17.8112
lclavicle 1.66979e-014 -3.83654e-014
lhumerus -9.30127 -45.3037 41.0056
lradius 73.1615
lwrist -6.79741
lhand -49.4871 -372.399
lfingers 7.12502
lthumb -22.0968 16.3582
rfemur 11.8039 -5.83392 10.474
rtibia 1.27222e-014
rfoot 19.3835 -2.58814
rtoes -12.8501
lfemur -38.7371 22.0869 6.68268
ltibia 111.54
lfoot 32.3651 -12.3475
ltoes 3.16712
624
root 0.519882 1.61495 20.4806 -278.047 -3.14187 -541.364
lowerback 8.16513 2.64069 -1.42667
upperback 5.20776 2.88474 -3.52511
thorax 0.928431 1.20958 -3.05162
lowerneck -12.8966 -3.72636 -4.04482
upperneck 7.16687 -4.68436 4.26913
head 4.43781 -2.12971 1.61748
rclavicle 1.19271e-014 -1.2424e-014
rhumerus -28.2816 11.1652 -51.4867
rradius 97.9421
rwrist -9.88423
rhand -14.8613 11.9376
rfingers 7.12502
rthumb 11.2985 -17.7381
lclavicle 1.19271e-014 -1.2424e-014
lhumerus -10.0259 -44.9489 41.6151
lradius 73.159
lwrist -7.09444
lhand -49.589 -372.378
lfingers 7.12502
lthumb -22.1945 16.368
rfemur 11.7526 -5.75454 10.4494
rtibia -3.18055e-015
rfoot 19.1078 -2.76772
rtoes -12.7989
lfemur -38.8402 21.9617 6.53483
ltibia 111.524
lfoot 32.3439 -12.3266
ltoes 2.83534
625
root 0.527086 1.61436 20.4779 -277.949 -3.20844 -541.466
lowerback 8.06704 2.65544 -1.4175
upperback 5.14515 2.91465 -3.51112
thorax 0.918276 1.2284 -3.04114
lowerneck -13.0992 -3.72216 -3.93998
upperneck 7.43711 -4.71131 4.43176
head 4.55728 -2.12282 1.64444
rclavicle -2.14687e-014 3.56818e-014
rhumerus -28.6175 11.2709 -51.8275
rradius 97.6283
rwrist -9.69502
rhand -14.8248 11.9635
rfingers 7.12502
rthumb 11.3337 -17.7102
lclavicle -2.14687e-014 3.56818e-014
lhumerus -10.6835 -44.5781 42.163
lradius 73.1029
lwrist -7.41461
lhand -49.599 -372.279
lfingers 7.12502
lthumb -22.2041 16.4657
rfemur 11.7237 -5.6721 10.4032
rtibia -1.98785e-014
rfoot 18.8809 -2.95811
rtoes -12.7507
lfemur -38.9194 21.8242 6.37813
ltibia 111.517
lfoot 32.3546 -12.2056
ltoes 2.67782
626
root 0.532893 1.6138 20.4762 -277.832 -3.27177 -541.581
lowerback 7.9577 2.67338 -1.41447
upperback 5.06422 2.95135 -3.47354
thorax 0.893923 1.25158 -3.00299
lowerneck -13.2468 -3.72526 -3.91271
upperneck 7.69332 -4.74053 4.62149
head 4.66632 -2.11801 1.69309
rclavicle 2.3059e-014 -2.95195e-014
rhumerus -28.9641 11.3865 -52.1472
rradius 97.2858
rwrist -9.46092
rhand -14.7399 11.9843
rfingers 7.12502
rthumb 11.4156 -17.6849
lclavicle 2.3059e-014 -2.95195e-014
lhumerus -11.4025 -44.1558 42.8426
lradius 73.0149
lwrist -7.8314
lhand -49.5265 -372.172
lfingers 7.12502
lthumb -22.1346 16.581
rfemur 11.6793 -5.57833 10.3522
rtibia -2.38542e-014
rfoot 18.7193 -3.19893
rtoes -12.3902
lfemur -39.016 21.6951 6.19802
ltibia 111.509
lfoot 32.3503 -12.0805
ltoes 2.55683
